<?xml version="1.0" encoding="UTF-8"?>
<svg version="1.1" xmlns="http://www.w3.org/2000/svg" width="615" height="406">
<path d="M0 0 C0.89162842 0.37125 0.89162842 0.37125 1.80126953 0.75 C19.64031623 8.33697334 32.52625634 20.86518081 40 39 C45.93814894 56.91341596 45.26350615 74.71237619 37.578125 92.05078125 C27.90333019 110.13115274 12.73612888 121.21876681 -6.6640625 127.11328125 C-24.09121904 131.27046373 -41.61472038 127.6280137 -56.92578125 118.984375 C-61.81364094 115.82931436 -65.91784505 112.12558213 -70 108 C-70.62390625 107.40960938 -71.2478125 106.81921875 -71.890625 106.2109375 C-83.59303791 94.24495673 -88.55070118 76.86315782 -88.42016602 60.5168457 C-87.75449583 41.55268902 -79.68361722 25.92341627 -66 13 C-48.73275803 -1.8398181 -21.81826931 -9.37330583 0 0 Z M-15 35 C-17.85730787 41.21514082 -20.38312193 47.49348446 -22.70703125 53.92578125 C-23.03668381 54.83579391 -23.36633636 55.74580658 -23.70597839 56.68339539 C-24.39437796 58.58942171 -25.08082324 60.49615491 -25.76538086 62.40356445 C-26.81719743 65.32554965 -27.88408681 68.24176495 -28.95117188 71.15820312 C-29.62072729 73.01789257 -30.28937963 74.87790747 -30.95703125 76.73828125 C-31.27775101 77.60810135 -31.59847076 78.47792145 -31.9289093 79.37409973 C-32.21638535 80.18561996 -32.50386139 80.9971402 -32.80004883 81.83325195 C-33.05667801 82.54334915 -33.31330719 83.25344635 -33.57771301 83.98506165 C-34.06592362 86.31455395 -33.73985805 87.761656 -33 90 C-30.58688176 90.17858877 -30.58688176 90.17858877 -28 89 C-26.36705839 86.32746995 -25.50779701 83.4042205 -24.5546875 80.43359375 C-24.25813263 79.56614029 -23.96157776 78.69868683 -23.65603638 77.8049469 C-22.70938016 75.02198862 -21.79179189 72.23042211 -20.875 69.4375 C-20.25063021 67.58203095 -19.6243496 65.72720372 -18.99609375 63.87304688 C-17.83407536 60.44065197 -16.68555263 57.00424488 -15.54638672 53.56420898 C-14.54489816 50.55009604 -13.46542223 47.58473628 -12.31298828 44.62524414 C-11.0407793 41.11259425 -10.7230914 38.69211473 -11 35 C-12.32 35 -13.64 35 -15 35 Z M-49 44 C-49 44.66 -49 45.32 -49 46 C-49.99 46.33 -50.98 46.66 -52 47 C-52 47.66 -52 48.32 -52 49 C-52.99 49.33 -53.98 49.66 -55 50 C-55 50.66 -55 51.32 -55 52 C-55.99 52.33 -56.98 52.66 -58 53 C-58 53.66 -58 54.32 -58 55 C-58.99 55.33 -59.98 55.66 -61 56 C-61 56.66 -61 57.32 -61 58 C-61.639375 58.2475 -62.27875 58.495 -62.9375 58.75 C-65.18741541 59.81562433 -65.18741541 59.81562433 -65.75 62.125 C-65.8325 62.74375 -65.915 63.3625 -66 64 C-65.34 64 -64.68 64 -64 64 C-63.67 64.99 -63.34 65.98 -63 67 C-61.37571904 68.646476 -61.37571904 68.646476 -59.375 70.25 C-55.86444323 73.20062926 -52.71726798 76.31709483 -49.640625 79.71484375 C-47.82252347 81.41110798 -47.82252347 81.41110798 -44 81 C-43.67 80.01 -43.34 79.02 -43 78 C-44.22290242 76.06217126 -44.22290242 76.06217126 -46.0625 74.1875 C-46.70703125 73.49011719 -47.3515625 72.79273438 -48.015625 72.07421875 C-48.67046875 71.38972656 -49.3253125 70.70523438 -50 70 C-50.57234375 69.38769531 -51.1446875 68.77539062 -51.734375 68.14453125 C-53.10703525 66.71411055 -54.54844103 65.35028741 -56 64 C-56.66 64 -57.32 64 -58 64 C-56.19587357 60.73539027 -55.16605307 59.11070205 -52 57 C-52 56.34 -52 55.68 -52 55 C-51.34 55 -50.68 55 -50 55 C-48.15174364 53.32597863 -48.15174364 53.32597863 -46.3125 51.1875 C-45.66925781 50.47980469 -45.02601563 49.77210938 -44.36328125 49.04296875 C-43.91339844 48.36878906 -43.46351563 47.69460937 -43 47 C-43.33 46.01 -43.66 45.02 -44 44 C-45.65 44 -47.3 44 -49 44 Z M0 44 C-0.33 44.99 -0.66 45.98 -1 47 C2.58217042 52.52644055 7.9434386 56.87219478 13 61 C11.40647664 65.0362897 8.52045684 67.63744108 5.4375 70.5625 C1.44008718 74.22576272 1.44008718 74.22576272 -1 79 C-0.67 79.66 -0.34 80.32 0 81 C4.30246865 80.49711405 6.21278486 79.26926751 9.20703125 76.18359375 C9.95791016 75.41982422 10.70878906 74.65605469 11.48242188 73.86914062 C12.25134766 73.06669922 13.02027344 72.26425781 13.8125 71.4375 C14.60076172 70.63119141 15.38902344 69.82488281 16.20117188 68.99414062 C18.14342916 67.00479831 20.07573661 65.00672729 22 63 C18.10627556 58.3689459 14.11269519 53.8814809 9.875 49.5625 C9.36324219 49.02173828 8.85148437 48.48097656 8.32421875 47.92382812 C6.65030164 46.17552533 6.65030164 46.17552533 4 44 C2.68 44 1.36 44 0 44 Z " fill="#AF01FD" transform="translate(330,82)"/>
<path d="M0 0 C0.91265625 -0.01611328 1.8253125 -0.03222656 2.765625 -0.04882812 C12.22601774 -0.0555663 19.2510141 1.91379024 26.15625 8.50390625 C31.95793467 14.6088608 34.60295911 21.7317755 35.01171875 30.1171875 C34.5862315 38.69987307 31.09592807 47.26437549 24.875 53.3125 C16.62045066 58.58999876 10.49711072 59.49437922 0.8125 59.5 C-0.30189453 59.51224609 -1.41628906 59.52449219 -2.56445312 59.53710938 C-4.15870117 59.54000977 -4.15870117 59.54000977 -5.78515625 59.54296875 C-6.76105713 59.54707764 -7.73695801 59.55118652 -8.74243164 59.55541992 C-11.125 59.3125 -11.125 59.3125 -13.125 57.3125 C-13.38569641 54.99743652 -13.38569641 54.99743652 -13.3996582 52.06835938 C-13.40919022 50.97382446 -13.41872223 49.87928955 -13.42854309 48.75158691 C-13.42763168 47.56512573 -13.42672028 46.37866455 -13.42578125 45.15625 C-13.43006638 43.94304077 -13.4343515 42.72983154 -13.43876648 41.4798584 C-13.44451792 38.91089503 -13.44500409 36.34191537 -13.44067383 33.77294922 C-13.43751308 29.82882097 -13.46096693 25.8854417 -13.48632812 21.94140625 C-13.48860083 19.45052179 -13.48930475 16.95963529 -13.48828125 14.46875 C-13.497491 13.28228882 -13.50670074 12.09582764 -13.51618958 10.87341309 C-13.50996078 9.77887817 -13.50373199 8.68434326 -13.49731445 7.55664062 C-13.49794388 6.59004517 -13.4985733 5.62344971 -13.4992218 4.62756348 C-13.37572861 3.86359253 -13.25223541 3.09962158 -13.125 2.3125 C-8.82449488 -0.55450341 -5.05823464 -0.01741816 0 0 Z M-5.125 8.3125 C-5.125 22.5025 -5.125 36.6925 -5.125 51.3125 C8.9860811 52.51487549 8.9860811 52.51487549 19.703125 46.6640625 C24.24988584 41.14299577 26.38969858 36.59202135 26.875 29.3125 C26.22595075 23.40924253 24.60068094 19.02439059 20.875 14.3125 C20.2975 13.57 19.72 12.8275 19.125 12.0625 C12.19903413 6.67563766 3.1662577 8.3125 -5.125 8.3125 Z " fill="#040404" transform="translate(358.125,226.6875)"/>
<path d="M0 0 C0.90492188 -0.00257813 1.80984375 -0.00515625 2.7421875 -0.0078125 C4.1653125 0.00378906 4.1653125 0.00378906 5.6171875 0.015625 C7.00550781 0.00402344 7.00550781 0.00402344 8.421875 -0.0078125 C17.9766744 0.01917846 25.44860946 1.42578682 32.4921875 8.265625 C39.26135423 16.50244293 41.45887718 24.69152711 40.4921875 35.265625 C38.59488928 44.11506708 34.03452762 51.19478616 26.4921875 56.265625 C20.01850783 59.93894123 13.93279071 59.64924332 6.6171875 59.515625 C5.46476563 59.51046875 4.31234375 59.5053125 3.125 59.5 C-5.35342262 59.42001488 -5.35342262 59.42001488 -6.5078125 58.265625 C-6.61191683 56.52726209 -6.64634777 54.78467723 -6.65307617 53.04321289 C-6.65945602 51.9285817 -6.66583588 50.8139505 -6.67240906 49.6655426 C-6.67352188 48.45204636 -6.6746347 47.23855011 -6.67578125 45.98828125 C-6.67910965 44.75146103 -6.68243805 43.51464081 -6.68586731 42.24034119 C-6.6909418 39.61832045 -6.69327548 36.99629322 -6.69311523 34.37426758 C-6.69303379 31.67856158 -6.69999907 28.98302481 -6.71362305 26.28735352 C-6.73186596 22.41677602 -6.73684836 18.54639733 -6.73828125 14.67578125 C-6.74546677 13.46430923 -6.75265228 12.25283722 -6.76005554 11.00465393 C-6.75697891 9.88687057 -6.75390228 8.76908722 -6.75073242 7.61743164 C-6.75215744 6.63005508 -6.75358246 5.64267853 -6.75505066 4.62538147 C-6.28623607 0.15079602 -3.92166486 0.01080987 0 0 Z M0.4921875 8.265625 C0.4921875 22.455625 0.4921875 36.645625 0.4921875 51.265625 C17.2311677 52.75404182 17.2311677 52.75404182 25.4921875 47.265625 C27.48920791 45.09591294 27.48920791 45.09591294 28.8671875 42.703125 C29.34929687 41.93871094 29.83140625 41.17429687 30.328125 40.38671875 C33.16176841 35.22340208 33.15938176 30.00799361 32.4921875 24.265625 C30.55029839 18.48024583 27.92293556 13.3689096 22.4921875 10.265625 C14.30172928 7.57882218 14.30172928 7.57882218 0.4921875 8.265625 Z " fill="#040404" transform="translate(151.5078125,226.734375)"/>
<path d="M0 0 C0.62519531 0.28746094 1.25039062 0.57492188 1.89453125 0.87109375 C4.64285279 -0.41075187 4.64285279 -0.41075187 6.89453125 -2.12890625 C8.86572266 -1.09179688 8.86572266 -1.09179688 10.89453125 0.87109375 C11.27649749 3.48305183 11.40925015 5.66915305 11.35546875 8.27734375 C11.35409409 9.35900818 11.35409409 9.35900818 11.35269165 10.46252441 C11.3466553 11.98566274 11.3309079 13.50878918 11.30615234 15.03173828 C11.26966187 17.36274974 11.26513286 19.69217035 11.265625 22.0234375 C11.25579276 23.50391998 11.24413529 24.9843917 11.23046875 26.46484375 C11.2282431 27.16178345 11.22601746 27.85872314 11.22372437 28.57678223 C11.15233674 32.21771994 10.9707387 33.75678257 8.89453125 36.87109375 C5.95703125 36.49609375 5.95703125 36.49609375 2.89453125 35.87109375 C2.56453125 35.21109375 2.23453125 34.55109375 1.89453125 33.87109375 C1.09015625 34.36609375 0.28578125 34.86109375 -0.54296875 35.37109375 C-5.59212419 37.49705394 -9.97238503 37.82985161 -15.25 36.21484375 C-20.33637523 33.95855493 -24.12335907 30.57642943 -27.10546875 25.87109375 C-28.95700751 20.22615849 -28.98792957 14.15170868 -26.60546875 8.68359375 C-23.71024817 3.53195571 -19.14750907 0.04110926 -13.66796875 -2.06640625 C-9.04629631 -2.17912997 -4.13747486 -2.21842344 0 0 Z M-19.48046875 11.62109375 C-20.98253042 17.02851576 -20.88137942 20.49447804 -18.16796875 25.30859375 C-14.21238923 28.61836437 -11.20046423 29.27474656 -6.10546875 28.87109375 C-2.00333186 27.37940761 -0.53478666 26.51507062 1.89453125 22.87109375 C3.01712492 19.07154595 2.95691618 17.08393646 1.83203125 13.24609375 C-0.39978337 9.35841667 -2.09645928 7.83629447 -6.10546875 5.87109375 C-11.81935904 4.9187787 -15.91766847 7.08662066 -19.48046875 11.62109375 Z " fill="#050505" transform="translate(226.10546875,249.12890625)"/>
<path d="M0 0 C4.88315028 4.18555738 8.26616433 8.39251659 8.875 14.9375 C8.625 17.25 8.625 17.25 6.625 19.25 C3.82763672 19.47705078 3.82763672 19.47705078 0.3046875 19.4453125 C-1.58056641 19.43564453 -1.58056641 19.43564453 -3.50390625 19.42578125 C-4.82261719 19.40902344 -6.14132812 19.39226562 -7.5 19.375 C-8.83983721 19.36496983 -10.17968152 19.35584404 -11.51953125 19.34765625 C-14.80486573 19.32402075 -18.08984465 19.29107234 -21.375 19.25 C-19.57767009 23.37514562 -19.57767009 23.37514562 -16.625 26.625 C-13.39440892 27.52238641 -10.71373775 27.54287173 -7.375 27.25 C-5.68743867 26.28567924 -4.01833504 25.28789581 -2.375 24.25 C0.375 24 0.375 24 2.625 24.25 C3.625 25.25 3.625 25.25 4 27.5625 C3.625 30.25 3.625 30.25 1.4375 32.4375 C-4.13887768 36.03116562 -8.78882403 37.10906643 -15.375 36.25 C-21.98483255 34.35117538 -26.04051069 30.15746896 -29.375 24.25 C-31.02806914 18.96824249 -31.04817997 14.17000154 -28.6875 9.125 C-25.54150303 3.45782079 -21.81315021 -0.26018188 -15.62109375 -2.30859375 C-9.99786689 -3.41368007 -5.04885602 -2.61792534 0 0 Z M-18.375 8.25 C-19.035 9.24 -19.695 10.23 -20.375 11.25 C-14.105 11.25 -7.835 11.25 -1.375 11.25 C-2.91523852 7.21256339 -2.91523852 7.21256339 -5.6875 6 C-10.96637344 4.52682602 -13.90539115 4.98839354 -18.375 8.25 Z " fill="#040404" transform="translate(428.375,249.75)"/>
<path d="M0 0 C2.59322621 0.9926452 3.78168443 1.62104219 5.18847656 4.06298828 C5.50268555 4.89040527 5.81689453 5.71782227 6.140625 6.5703125 C6.48867188 7.46621094 6.83671875 8.36210937 7.1953125 9.28515625 C7.54335938 10.22230469 7.89140625 11.15945313 8.25 12.125 C8.61351562 13.06988281 8.97703125 14.01476562 9.3515625 14.98828125 C10.24696899 17.32105079 11.12911437 19.65798951 12 22 C14.94213497 16.2964195 17.40322265 10.55220982 19.65625 4.5390625 C21.13744158 1.74029935 22.06369896 1.03268214 25 0 C26.32 1.32 27.64 2.64 29 4 C25.32317515 14.13066087 21.37032962 24.14098273 17.3125 34.125 C16.83707764 35.29844971 16.36165527 36.47189941 15.87182617 37.6809082 C15.41525635 38.79941162 14.95868652 39.91791504 14.48828125 41.0703125 C14.08134033 42.06820801 13.67439941 43.06610352 13.25512695 44.09423828 C9.52994033 52.7184692 9.52994033 52.7184692 7 54.0625 C5 54 5 54 3.1875 52.9375 C2 51 2 51 2.0625 48.375 C3.06790022 44.75555922 4.51517981 41.66076119 6.2578125 38.34375 C7.80934178 33.44418384 5.67478254 28.80991362 3.6796875 24.3046875 C3.00099609 22.73654297 3.00099609 22.73654297 2.30859375 21.13671875 C1.34872054 18.95281104 0.38514464 16.77052719 -0.58203125 14.58984375 C-1.25685547 13.02556641 -1.25685547 13.02556641 -1.9453125 11.4296875 C-2.36312988 10.48335449 -2.78094727 9.53702148 -3.21142578 8.56201172 C-4.06225596 5.79773557 -4.19470469 4.614623 -3 2 C-2.01 1.34 -1.02 0.68 0 0 Z " fill="#050506" transform="translate(285,247)"/>
<path d="M0 0 C3.05991146 1.02664787 4.61250613 2.22340736 6.06103516 5.12646484 C7.06618804 7.79168174 7.95827662 10.47020222 8.8125 13.1875 C9.12380859 14.12787109 9.43511719 15.06824219 9.75585938 16.03710938 C10.52009141 18.3533203 11.26732025 20.67365445 12 23 C13.68016453 20.4797532 14.59483919 18.63471615 15.5859375 15.83984375 C16.02292969 14.6497168 16.02292969 14.6497168 16.46875 13.43554688 C17.07326758 11.76921501 17.66962634 10.09990077 18.2578125 8.42773438 C18.55171875 7.63560547 18.845625 6.84347656 19.1484375 6.02734375 C19.40802246 5.30281006 19.66760742 4.57827637 19.93505859 3.83178711 C21.26558736 1.54316783 22.5783222 0.96170542 25 0 C26.32 0.99 27.64 1.98 29 3 C28.30742766 7.66575047 26.58626008 11.69508695 24.75 16 C22.02328881 22.42497813 22.02328881 22.42497813 19.6015625 28.96875 C18.99441406 30.71671875 18.99441406 30.71671875 18.375 32.5 C18.03210938 33.5415625 17.68921875 34.583125 17.3359375 35.65625 C16 38 16 38 13.5390625 39.03125 C11 39 11 39 9.52807617 37.93139648 C7.3942186 35.2343287 6.24859629 32.24096597 5.01171875 29.06640625 C4.74486771 28.39206039 4.47801666 27.71771454 4.20307922 27.02293396 C3.64348687 25.59985534 3.08816993 24.17508904 2.53686523 22.7487793 C1.68923933 20.56697707 0.8171018 18.39606206 -0.05664062 16.22460938 C-0.59788173 14.83913745 -1.1376462 13.45308757 -1.67578125 12.06640625 C-1.93917801 11.4183754 -2.20257477 10.77034454 -2.47395325 10.10267639 C-3.53845166 7.28517894 -4.16982926 5.55369224 -3.27026367 2.62084961 C-2 1 -2 1 0 0 Z " fill="#040404" transform="translate(443,247)"/>
<path d="M0 0 C3.875 1.75 3.875 1.75 5 4 C5.100454 5.64861259 5.1383474 7.30122513 5.14526367 8.95288086 C5.15164352 9.98412582 5.15802338 11.01537079 5.16459656 12.0778656 C5.16570938 13.19556839 5.1668222 14.31327118 5.16796875 15.46484375 C5.17129715 16.60909317 5.17462555 17.75334259 5.17805481 18.93226624 C5.18312468 21.35580034 5.18546312 23.77934145 5.18530273 26.20288086 C5.18748886 29.91857354 5.20564323 33.63396928 5.22460938 37.34960938 C5.22754329 39.70051981 5.2295281 42.05143167 5.23046875 44.40234375 C5.23765427 45.51802231 5.24483978 46.63370087 5.25224304 47.78318787 C5.24916641 48.81758499 5.24608978 49.85198212 5.24291992 50.91772461 C5.24434494 51.82880478 5.24576996 52.73988495 5.24723816 53.67857361 C5 56 5 56 3 59 C-1.875 58.125 -1.875 58.125 -3 57 C-3.10926346 55.29244392 -3.14907402 53.58039057 -3.16113281 51.86938477 C-3.17074036 50.77477432 -3.1803479 49.68016388 -3.19024658 48.55238342 C-3.19449646 47.36076096 -3.19874634 46.16913849 -3.203125 44.94140625 C-3.20882507 43.72678207 -3.21452515 42.5121579 -3.22039795 41.26072693 C-3.22986467 38.68578976 -3.23638853 36.11084038 -3.24023438 33.53588867 C-3.24994972 29.58295741 -3.28096228 25.63054366 -3.3125 21.67773438 C-3.31902855 19.18229477 -3.3242796 16.68685143 -3.328125 14.19140625 C-3.3404718 13.00180801 -3.3528186 11.81220978 -3.36553955 10.58656311 C-3.36253845 9.48880051 -3.35953735 8.3910379 -3.35644531 7.26000977 C-3.36009094 6.2903981 -3.36373657 5.32078644 -3.36749268 4.3217926 C-3.24622009 3.55560104 -3.12494751 2.78940948 -3 2 C-2.01 1.34 -1.02 0.68 0 0 Z " fill="#050505" transform="translate(271,227)"/>
<path d="M0 0 C0 0.99 0 1.98 0 3 C-2.3125 5 -2.3125 5 -5 7 C-5.474375 7.53625 -5.94875 8.0725 -6.4375 8.625 C-8 10 -8 10 -11.125 11 C-12.548125 11.495 -12.548125 11.495 -14 12 C-14.33 12.99 -14.66 13.98 -15 15 C-15.66 15 -16.32 15 -17 15 C-17.33 15.99 -17.66 16.98 -18 18 C-18.99 18 -19.98 18 -21 18 C-21.3403125 18.804375 -21.3403125 18.804375 -21.6875 19.625 C-23 22 -23 22 -25.625 24.875 C-28.36704351 28.48295199 -28.09440697 29.65727941 -28 34 C-28.9590625 34.928125 -28.9590625 34.928125 -29.9375 35.875 C-32.46433425 38.47840499 -32.45984807 40.35136745 -32.71875 43.87890625 C-33.01211636 46.09137751 -33.63930091 47.66586496 -34.5625 49.6875 C-36.84841926 55.22475102 -36.24198088 61.12076075 -36 67 C-35.34 67.33 -34.68 67.66 -34 68 C-34.495 68.495 -34.495 68.495 -35 69 C-35.26586569 73.60833868 -34.9260727 76.82684248 -33 81 C-30.86915888 86.60747664 -30.86915888 86.60747664 -32 90 C-40.11101721 71.98239688 -41.82038691 53.76592005 -35 35 C-30.18488264 23.38091246 -14.58434725 0 0 0 Z " fill="#800FEC" transform="translate(281,85)"/>
<path d="M0 0 C2.475 0.99 2.475 0.99 5 2 C5.0493651 6.94790177 5.08570269 11.89566083 5.10986328 16.84375 C5.11993317 18.52769466 5.13358988 20.21162179 5.15087891 21.89550781 C5.17508426 24.31319501 5.18647296 26.73065143 5.1953125 29.1484375 C5.20563507 29.9036972 5.21595764 30.65895691 5.22659302 31.43710327 C5.22699318 33.2929398 5.12222716 35.1481928 5 37 C4.34 37.66 3.68 38.32 3 39 C-1.55555556 38.44444444 -1.55555556 38.44444444 -3 37 C-3.12568214 34.51415964 -3.18862757 32.05758328 -3.203125 29.5703125 C-3.20882507 28.82417694 -3.21452515 28.07804138 -3.22039795 27.30929565 C-3.22986151 25.72720768 -3.2363873 24.14509988 -3.24023438 22.56298828 C-3.2499323 20.14190218 -3.28093823 17.7216676 -3.3125 15.30078125 C-3.3190306 13.76563006 -3.32428085 12.23047277 -3.328125 10.6953125 C-3.3404718 9.97022491 -3.3528186 9.24513733 -3.36553955 8.49807739 C-3.34315708 3.44707394 -3.34315708 3.44707394 -1.47949219 1.01904297 C-0.99125977 0.68275879 -0.50302734 0.34647461 0 0 Z " fill="#030303" transform="translate(251,247)"/>
<path d="M0 0 C7.32951574 6.17559781 9.13786043 18.93556039 10 28 C11.1316661 43.13603413 7.45760542 59.8402216 -2 72 C-2.33 72 -2.66 72 -3 72 C-3 70.35 -3 68.7 -3 67 C-2.34 67 -1.68 67 -1 67 C-1 66.34 -1 65.68 -1 65 C-0.34 65 0.32 65 1 65 C1.12375 64.13375 1.2475 63.2675 1.375 62.375 C2 59 2 59 2.9375 56.3125 C4.17945516 52.44052214 4.85663598 48.58976786 5.53515625 44.5859375 C6 42 6 42 6.5546875 39.9296875 C7.04440781 37.80756615 7.09874092 35.92445502 7.0625 33.75 C7.041875 32.5125 7.02125 31.275 7 30 C6.34 30 5.68 30 5 30 C4.67 30.66 4.34 31.32 4 32 C4.875 28.125 4.875 28.125 6 27 C6.20844396 19.89801642 4.04877364 14.1063214 1.05859375 7.76171875 C-0.02150851 4.94388739 -0.21206699 2.98525066 0 0 Z " fill="#D026E7" transform="translate(364,111)"/>
<path d="M0 0 C0.66 0 1.32 0 2 0 C2.55522979 5.69110532 0.94594414 8.32114754 -2 13 C-3.76176596 16.22990427 -5.10524304 19.42097216 -6 23 C-5.10643315 25.16293953 -5.10643315 25.16293953 -4 27 C-4.47050781 26.59007812 -4.94101562 26.18015625 -5.42578125 25.7578125 C-6.04839844 25.21898437 -6.67101562 24.68015625 -7.3125 24.125 C-7.92738281 23.59132812 -8.54226563 23.05765625 -9.17578125 22.5078125 C-11.13498212 20.8359553 -11.13498212 20.8359553 -14 19 C-13.52794881 14.75153925 -11.11122478 12.73180712 -8 10 C-7.34 10 -6.68 10 -6 10 C-5.7525 9.443125 -5.505 8.88625 -5.25 8.3125 C-3.78612948 5.60433954 -1.93508512 3.38660498 0 1 C0 0.67 0 0.34 0 0 Z " fill="#9D01FC" transform="translate(286,127)"/>
<path d="M0 0 C2.4375 1.625 2.4375 1.625 4 4 C4.60605429 7.63632575 4.47161336 9.28314769 2.4375 12.375 C-0.93510779 14.62340519 -3.02512383 14.56783945 -7 14 C-9.4375 12.375 -9.4375 12.375 -11 10 C-11.60605429 6.36367425 -11.47161336 4.71685231 -9.4375 1.625 C-6.06489221 -0.62340519 -3.97487617 -0.56783945 0 0 Z M-8 5 C-7.71016731 8.30683466 -7.71016731 8.30683466 -6 11 C-3.54190002 11.2500773 -3.54190002 11.2500773 -1 11 C-0.34 10.34 0.32 9.68 1 9 C0.71016731 5.69316534 0.71016731 5.69316534 -1 3 C-4.961168 2.60909667 -4.961168 2.60909667 -8 5 Z " fill="#781CBD" transform="translate(289,309)"/>
<path d="M0 0 C2.4375 1.625 2.4375 1.625 4 4 C4.60605429 7.63632575 4.47161336 9.28314769 2.4375 12.375 C-0.95870843 14.63913895 -3.00099302 14.64269755 -7 14 C-9.5 11.875 -9.5 11.875 -11 9 C-10.936318 5.81590023 -10.51040601 3.85067668 -8.875 1.125 C-5.83167192 -0.70099685 -3.45750445 -0.42460581 0 0 Z M-8 5 C-7.99077298 7.54713404 -7.99077298 7.54713404 -7 10 C-5.03241727 11.36020151 -5.03241727 11.36020151 -3 12 C-1.68 11.01 -0.36 10.02 1 9 C0.67 7.02 0.34 5.04 0 3 C-4.49304582 2.57496554 -4.49304582 2.57496554 -8 5 Z " fill="#6C22C7" transform="translate(207,309)"/>
<path d="M0 0 C3.3 0 6.6 0 10 0 C10 0.99 10 1.98 10 3 C9.01 3.495 9.01 3.495 8 4 C8.33 5.65 8.66 7.3 9 9 C6.03 8.505 6.03 8.505 3 8 C3 8.99 3 9.98 3 11 C4.98 11 6.96 11 9 11 C9.33 11.99 9.66 12.98 10 14 C6.7 14 3.4 14 0 14 C0 9.38 0 4.76 0 0 Z " fill="#6C1BC0" transform="translate(236,309)"/>
<path d="M0 0 C6.15234375 -0.09765625 6.15234375 -0.09765625 8 0 C8.33 0.33 8.66 0.66 9 1 C8.95875 2.093125 8.9175 3.18625 8.875 4.3125 C9.00802362 8.23669668 9.48962949 9.17583318 12 12 C12 12.66 12 13.32 12 14 C10.68 14 9.36 14 8 14 C6.375 11.5625 6.375 11.5625 5 9 C4.34 8.67 3.68 8.34 3 8 C3 9.98 3 11.96 3 14 C2.01 14 1.02 14 0 14 C0 9.38 0 4.76 0 0 Z " fill="#BD36D8" transform="translate(412,309)"/>
<path d="M0 0 C6.15234375 -0.09765625 6.15234375 -0.09765625 8 0 C8.33 0.33 8.66 0.66 9 1 C8.95875 2.093125 8.9175 3.18625 8.875 4.3125 C9.00802362 8.23669668 9.48962949 9.17583318 12 12 C12 12.66 12 13.32 12 14 C7.75177626 13.52797514 5.80010291 11.03344482 3 8 C3 9.98 3 11.96 3 14 C2.01 14 1.02 14 0 14 C0 9.38 0 4.76 0 0 Z " fill="#8E30C2" transform="translate(317,309)"/>
<path d="M0 0 C1.32 0.33 2.64 0.66 4 1 C4 4.3 4 7.6 4 11 C5.32 11 6.64 11 8 11 C8 7.7 8 4.4 8 1 C9.32 0.67 10.64 0.34 12 0 C12.08114106 1.77007714 12.13925505 3.54122098 12.1875 5.3125 C12.22230469 6.29863281 12.25710938 7.28476562 12.29296875 8.30078125 C12 11 12 11 10.67578125 12.828125 C8.04519634 14.66769486 6.11004141 14.45354771 3 14 C0.83839961 11.80816743 0.05686284 10.50039296 -0.29296875 7.421875 C-0.25816406 6.54015625 -0.22335937 5.6584375 -0.1875 4.75 C-0.16042969 3.85796875 -0.13335937 2.9659375 -0.10546875 2.046875 C-0.07066406 1.37140625 -0.03585937 0.6959375 0 0 Z " fill="#A631CF" transform="translate(360,309)"/>
<path d="M0 0 C3.82262822 0.25916124 5.16511434 0.43656984 7.6875 3.25 C8.625 5.625 8.625 5.625 8.6875 8.25 C6.49347015 12.84701493 6.49347015 12.84701493 3.6875 14.25 C0.125 14.375 0.125 14.375 -3.3125 14.25 C-4.3125 13.25 -4.3125 13.25 -4.4453125 10.5625 C-4.44273437 9.469375 -4.44015625 8.37625 -4.4375 7.25 C-4.44007813 6.156875 -4.44265625 5.06375 -4.4453125 3.9375 C-4.24993636 -0.01599365 -4.04487969 0.30527394 0 0 Z M-1.3125 3.25 C-1.3125 5.89 -1.3125 8.53 -1.3125 11.25 C0.3375 11.25 1.9875 11.25 3.6875 11.25 C4.88588209 8.92145537 4.88588209 8.92145537 5.6875 6.25 C5.0275 5.26 4.3675 4.27 3.6875 3.25 C1.10369823 2.99969023 1.10369823 2.99969023 -1.3125 3.25 Z " fill="#6F22C8" transform="translate(221.3125,308.75)"/>
<path d="M0 0 C1.23556641 0.01740234 1.23556641 0.01740234 2.49609375 0.03515625 C3.32238281 0.04417969 4.14867187 0.05320312 5 0.0625 C5.63808594 0.07410156 6.27617187 0.08570313 6.93359375 0.09765625 C6.60359375 2.40765625 6.27359375 4.71765625 5.93359375 7.09765625 C4.28359375 7.42765625 2.63359375 7.75765625 0.93359375 8.09765625 C0.60359375 9.08765625 0.27359375 10.07765625 -0.06640625 11.09765625 C1.91359375 11.09765625 3.89359375 11.09765625 5.93359375 11.09765625 C6.26359375 12.08765625 6.59359375 13.07765625 6.93359375 14.09765625 C5.45452483 14.12454841 3.97531892 14.14400246 2.49609375 14.16015625 C1.26052734 14.17755859 1.26052734 14.17755859 0 14.1953125 C-2.06640625 14.09765625 -2.06640625 14.09765625 -3.06640625 13.09765625 C-3.16514441 11.09966053 -3.19612424 9.09808467 -3.19140625 7.09765625 C-3.19398438 6.00453125 -3.1965625 4.91140625 -3.19921875 3.78515625 C-3.0192129 0.14268492 -3.0192129 0.14268492 0 0 Z " fill="#C536DA" transform="translate(432.06640625,308.90234375)"/>
<path d="M0 0 C1.2065625 0.0309375 1.2065625 0.0309375 2.4375 0.0625 C1.52291016 0.37392944 1.52291016 0.37392944 0.58984375 0.69165039 C-2.45160233 2.62877831 -2.8459288 4.61150042 -4 7.99609375 C-4.42023438 9.20330078 -4.84046875 10.41050781 -5.2734375 11.65429688 C-5.70357079 12.9360484 -6.13325608 14.21795036 -6.5625 15.5 C-7.41650865 17.97791905 -8.27067333 20.45578433 -9.125 22.93359375 C-9.53234375 24.13097168 -9.9396875 25.32834961 -10.359375 26.56201172 C-12.02889803 31.41948356 -13.78391759 36.24405695 -15.5625 41.0625 C-16.85452804 36.43661598 -15.86577754 33.66230309 -14.5625 29.0625 C-13.9025 29.0625 -13.2425 29.0625 -12.5625 29.0625 C-12.418125 27.763125 -12.27375 26.46375 -12.125 25.125 C-11.6875 21.1875 -11.6875 21.1875 -10.5625 20.0625 C-10.52169217 18.06291636 -10.51995644 16.06204746 -10.5625 14.0625 C-11.2225 13.7325 -11.8825 13.4025 -12.5625 13.0625 C-12.5625 12.0725 -12.5625 11.0825 -12.5625 10.0625 C-11.2425 10.0625 -9.9225 10.0625 -8.5625 10.0625 C-8.2325 9.4025 -7.9025 8.7425 -7.5625 8.0625 C-6.9025 8.0625 -6.2425 8.0625 -5.5625 8.0625 C-5.253125 6.928125 -4.94375 5.79375 -4.625 4.625 C-3.26939655 0.07974138 -3.26939655 0.07974138 0 0 Z " fill="#AC27E7" transform="translate(316.5625,115.9375)"/>
<path d="M0 0 C0.99 0 1.98 0 3 0 C3.33 3.3 3.66 6.6 4 10 C5.32 10.33 6.64 10.66 8 11 C8 7.37 8 3.74 8 0 C8.99 0 9.98 0 11 0 C11.05389087 1.95803507 11.09274217 3.91648909 11.125 5.875 C11.14820313 6.96554687 11.17140625 8.05609375 11.1953125 9.1796875 C11 12 11 12 9 14 C3.79846497 14.55335479 3.79846497 14.55335479 1.3203125 12.8359375 C-0.52582316 10.26882578 -0.29776444 8.43665913 -0.1875 5.3125 C-0.16042969 4.31863281 -0.13335937 3.32476562 -0.10546875 2.30078125 C-0.07066406 1.54152344 -0.03585937 0.78226562 0 0 Z " fill="#B736D1" transform="translate(394,309)"/>
<path d="M0 0 C0.99 0 1.98 0 3 0 C3.33 3.3 3.66 6.6 4 10 C5.32 10.33 6.64 10.66 8 11 C8 7.37 8 3.74 8 0 C9.32 0.33 10.64 0.66 12 1 C11.91306859 2.79258558 11.80489496 4.58415144 11.6875 6.375 C11.62949219 7.37273437 11.57148438 8.37046875 11.51171875 9.3984375 C11.34285156 10.25695312 11.17398437 11.11546875 11 12 C7.76746204 14.15502531 6.74849077 14.46856135 3 14 C1.35546875 12.8359375 1.35546875 12.8359375 0 11 C-0.29296875 8.30078125 -0.29296875 8.30078125 -0.1875 5.3125 C-0.16042969 4.31863281 -0.13335937 3.32476562 -0.10546875 2.30078125 C-0.07066406 1.54152344 -0.03585937 0.78226562 0 0 Z " fill="#8024B9" transform="translate(299,309)"/>
<path d="M0 0 C0.66 1.32 1.32 2.64 2 4 C-0.97 3.67 -3.94 3.34 -7 3 C-7.04254356 4.99954746 -7.04080783 7.00041636 -7 9 C-5.95562735 10.27379279 -5.95562735 10.27379279 -3.625 10.0625 C-2.75875 10.041875 -1.8925 10.02125 -1 10 C-0.01 10 0.98 10 2 10 C1.34 11.32 0.68 12.64 0 14 C-6.27586207 14.48275862 -6.27586207 14.48275862 -9.4375 12.375 C-11.47161336 9.28314769 -11.60605429 7.63632575 -11 4 C-8.02080717 -0.52837311 -5.15974216 -0.39690324 0 0 Z " fill="#6425C9" transform="translate(188,309)"/>
<path d="M0 0 C0.99 0.33 1.98 0.66 3 1 C2.01 1.33 1.02 1.66 0 2 C0 2.66 0 3.32 0 4 C-1.66215268 5.33895632 -3.32963607 6.67130142 -5 8 C-5.928125 9.175625 -5.928125 9.175625 -6.875 10.375 C-9.17127515 13.21157518 -11.66240358 15.31282511 -14.51171875 17.5703125 C-16.27131667 19.03881631 -16.27131667 19.03881631 -17 22 C-16.34 22 -15.68 22 -15 22 C-11.98863141 24.77972485 -9.35802849 27.64911741 -7 31 C-8.32 31 -9.64 31 -11 31 C-12.32308873 29.54782944 -13.64081865 28.08372172 -14.82421875 26.515625 C-16.00373615 24.88326174 -16.00373615 24.88326174 -17.875 23.4375 C-19 22 -19 22 -18.875 19.5 C-17.95581053 16.87374438 -17.19906926 15.67129263 -15 14 C-14.34 14 -13.68 14 -13 14 C-12.67 13.01 -12.34 12.02 -12 11 C-11.34 11 -10.68 11 -10 11 C-9.690625 10.38125 -9.38125 9.7625 -9.0625 9.125 C-8.375 7.75 -7.6875 6.375 -7 5 C-6.01 5 -5.02 5 -4 5 C-4 4.34 -4 3.68 -4 3 C-3.01 3 -2.02 3 -1 3 C-0.67 2.01 -0.34 1.02 0 0 Z " fill="#9336E7" transform="translate(281,124)"/>
<path d="M0 0 C0.66 0 1.32 0 2 0 C2 0.66 2 1.32 2 2 C2.99 2.33 3.98 2.66 5 3 C5 3.66 5 4.32 5 5 C5.66 5 6.32 5 7 5 C7.66 6.32 8.32 7.64 9 9 C10.32 8.67 11.64 8.34 13 8 C13.18433594 8.66386719 13.36867188 9.32773438 13.55859375 10.01171875 C15.29544492 15.29946564 16.61846264 18.32226417 21.6875 20.9375 C22.47511719 21.27652344 23.26273437 21.61554688 24.07421875 21.96484375 C26 23 26 23 27 26 C15.37382457 22.36682018 5.88835388 11.19309743 0 1 C0 0.67 0 0.34 0 0 Z " fill="#890CEB" transform="translate(250,176)"/>
<path d="M0 0 C1 1 1 1 1.25 3.9375 C1.1675 4.948125 1.085 5.95875 1 7 C-2 9 -2 9 -4.5625 8.75 C-7 8 -7 8 -9 6 C-8.75 2.9375 -8.75 2.9375 -8 0 C-5.11795733 -1.44102133 -3.08226581 -0.65580124 0 0 Z " fill="#070707" transform="translate(256,235)"/>
<path d="M0 0 C0.6875 1.5625 0.6875 1.5625 1 4 C0.29953197 5.66778102 -0.40822407 7.33313399 -1.1640625 8.9765625 C-6.24231793 21.26878825 -5.19010448 36.64111386 -1 49 C-0.34 49.66 0.32 50.32 1 51 C1.56520003 53.65537372 1.73788198 56.29144713 2 59 C-0.60505033 55.88882561 -1.88088936 52.97488567 -3.125 49.125 C-3.45757812 48.11695313 -3.79015625 47.10890625 -4.1328125 46.0703125 C-8.18699919 31.71630017 -7.4132994 13.25711649 0 0 Z " fill="#8137D3" transform="translate(248,116)"/>
<path d="M0 0 C6.15234375 0.5859375 6.15234375 0.5859375 8 1 C8.33 1.66 8.66 2.32 9 3 C10.64142963 4.0409066 12.30712215 5.04504326 14 6 C13.67 6.99 13.34 7.98 13 9 C14.65 9 16.3 9 18 9 C18.33 11.31 18.66 13.62 19 16 C14.62210085 12.33685989 10.55288369 8.60968094 6.67578125 4.41796875 C4.79498108 2.82652245 3.40558255 2.40355089 1 2 C1.53069061 5.82097239 2.49701566 8.06171403 5 11 C2.13998967 9.71792641 -0.07039412 8.50848764 -2 6 C-2 4.68 -2 3.36 -2 2 C-1.34 2 -0.68 2 0 2 C0 1.34 0 0.68 0 0 Z " fill="#C22DEB" transform="translate(329,124)"/>
<path d="M0 0 C1.45853394 0.00737183 1.45853394 0.00737183 2.9465332 0.01489258 C14.29494748 0.20061988 22.98919828 3.35242682 33.125 8.3125 C29.64628379 9.47207207 28.78280355 9.08706651 25.4375 7.875 C24.62925781 7.58753906 23.82101562 7.30007812 22.98828125 7.00390625 C22.37339844 6.77574219 21.75851562 6.54757813 21.125 6.3125 C21.125 5.6525 21.125 4.9925 21.125 4.3125 C20.52171875 4.25191406 19.9184375 4.19132812 19.296875 4.12890625 C18.09804688 4.00322266 18.09804688 4.00322266 16.875 3.875 C15.69164062 3.75318359 15.69164062 3.75318359 14.484375 3.62890625 C12.125 3.3125 12.125 3.3125 10.26171875 2.78515625 C0.87578384 0.70892568 -10.42807101 2.42037854 -19.875 3.3125 C-19.875 2.9825 -19.875 2.6525 -19.875 2.3125 C-13.13815402 0.58351397 -6.94549202 -0.04149614 0 0 Z " fill="#A934D6" transform="translate(307.875,78.6875)"/>
<path d="M0 0 C2.97 0 5.94 0 9 0 C9 0.99 9 1.98 9 3 C8.01 3.33 7.02 3.66 6 4 C6.33 4.99 6.66 5.98 7 7 C6.34 7.66 5.68 8.32 5 9 C4.34 8.67 3.68 8.34 3 8 C3 9.98 3 11.96 3 14 C2.01 14 1.02 14 0 14 C0 9.38 0 4.76 0 0 Z " fill="#9D2CC5" transform="translate(345,309)"/>
<path d="M0 0 C0.66 0 1.32 0 2 0 C2 1.65 2 3.3 2 5 C1.01 5 0.02 5 -1 5 C-1 5.99 -1 6.98 -1 8 C-1.66 8 -2.32 8 -3 8 C-3.0825 8.61875 -3.165 9.2375 -3.25 9.875 C-3.4975 10.57625 -3.745 11.2775 -4 12 C-4.639375 12.268125 -5.27875 12.53625 -5.9375 12.8125 C-8.42453319 13.94389021 -8.42453319 13.94389021 -9.25 17.625 C-9.4975 18.73875 -9.745 19.8525 -10 21 C-11.32 20.34 -12.64 19.68 -14 19 C-13.52794881 14.75153925 -11.11122478 12.73180712 -8 10 C-7.34 10 -6.68 10 -6 10 C-5.7525 9.443125 -5.505 8.88625 -5.25 8.3125 C-3.78612948 5.60433954 -1.93508512 3.38660498 0 1 C0 0.67 0 0.34 0 0 Z " fill="#9B30E8" transform="translate(286,127)"/>
<path d="M0 0 C4 0 4 0 5.75 1.5 C6.1625 1.995 6.575 2.49 7 3 C7.66 2.01 8.32 1.02 9 0 C9.99 0 10.98 0 12 0 C10.125 4.875 10.125 4.875 9 6 C8.76924918 7.34747084 8.58846937 8.70377565 8.4375 10.0625 C8.293125 11.361875 8.14875 12.66125 8 14 C7.01 14 6.02 14 5 14 C4.89042969 13.40832031 4.78085937 12.81664062 4.66796875 12.20703125 C3.74085597 7.58654237 2.77648665 3.9123221 0 0 Z " fill="#7524BA" transform="translate(261,309)"/>
<path d="M0 0 C2.88575819 0.39803561 3.82189513 0.79009069 5.75 3.0625 C6.36875 4.0215625 6.36875 4.0215625 7 5 C3.375 11.875 3.375 11.875 0 13 C-0.45375 13.495 -0.9075 13.99 -1.375 14.5 C-3.46918881 16.43309736 -5.22150692 16.62452796 -8 17 C-7.62488281 16.56429687 -7.24976563 16.12859375 -6.86328125 15.6796875 C-3.54140223 11.81392401 -0.25357073 7.92342352 3 4 C2.01 2.68 1.02 1.36 0 0 Z " fill="#C821ED" transform="translate(348,140)"/>
<path d="M0 0 C3.3 0 6.6 0 10 0 C10 0.99 10 1.98 10 3 C8.68 3 7.36 3 6 3 C6 6.63 6 10.26 6 14 C5.01 14 4.02 14 3 14 C3 10.37 3 6.74 3 3 C2.01 3 1.02 3 0 3 C0 2.01 0 1.02 0 0 Z " fill="#B13DCC" transform="translate(378,309)"/>
<path d="M0 0 C7.75 0.875 7.75 0.875 10 2 C10 2.66 10 3.32 10 4 C12.97 4 15.94 4 19 4 C19 4.66 19 5.32 19 6 C25.93 6 32.86 6 40 6 C40 6.33 40 6.66 40 7 C9.79581917 8.00641894 9.79581917 8.00641894 0 0 Z " fill="#A43ADC" transform="translate(279,203)"/>
<path d="M0 0 C2.31 1.98 4.62 3.96 7 6 C5.11656068 9.76687864 4.30867531 10.79421646 1 13 C-1.48887372 8.31506124 -0.85687773 5.0555786 0 0 Z " fill="#C725F7" transform="translate(337,137)"/>
<path d="M0 0 C0 0.33 0 0.66 0 1 C-1.98 1 -3.96 1 -6 1 C-7.29616272 7.28851034 -7.29616272 7.28851034 -5 13 C-3.35 13 -1.7 13 0 13 C0 13.33 0 13.66 0 14 C-3.25 14.3125 -3.25 14.3125 -7 14 C-9.5 11.875 -9.5 11.875 -11 9 C-10.936318 5.81590023 -10.51040601 3.85067668 -8.875 1.125 C-5.98014 -0.611916 -3.29140103 -0.18630572 0 0 Z " fill="#5B20B5" transform="translate(207,309)"/>
<path d="M0 0 C1.29202804 4.62588402 0.30327754 7.40019691 -1 12 C-1.66 12 -2.32 12 -3 12 C-3.12117188 12.77085937 -3.24234375 13.54171875 -3.3671875 14.3359375 C-3.61855469 15.84027344 -3.61855469 15.84027344 -3.875 17.375 C-4.03742188 18.37273437 -4.19984375 19.37046875 -4.3671875 20.3984375 C-5 23 -5 23 -7 25 C-9.625 24.625 -9.625 24.625 -12 24 C-11.38415039 23.77328613 -10.76830078 23.54657227 -10.13378906 23.31298828 C-7.31172088 21.57647996 -6.93016012 20.09746436 -5.859375 16.9921875 C-5.51132812 16.00605469 -5.16328125 15.01992187 -4.8046875 14.00390625 C-4.45664062 12.97136719 -4.10859375 11.93882812 -3.75 10.875 C-3.38648438 9.83472656 -3.02296875 8.79445312 -2.6484375 7.72265625 C-1.75247846 5.15266847 -0.87035171 2.57874951 0 0 Z " fill="#A42CE2" transform="translate(309,149)"/>
<path d="M0 0 C6.3917339 3.9060596 12.19635241 8.18850264 17 14 C17 14.66 17 15.32 17 16 C13.55463828 15.74478802 12.81024183 14.78710059 10.4375 12.125 C9.633125 11.09375 8.82875 10.0625 8 9 C5.84085639 6.59172444 5.17642911 6.0588097 2 5 C0.8125 2.4375 0.8125 2.4375 0 0 Z " fill="#C021E4" transform="translate(342,88)"/>
<path d="M0 0 C0 0.99 0 1.98 0 3 C-2.3125 5 -2.3125 5 -5 7 C-5.515625 7.598125 -6.03125 8.19625 -6.5625 8.8125 C-7.036875 9.204375 -7.51125 9.59625 -8 10 C-10.1875 9.6875 -10.1875 9.6875 -12 9 C-9.20560986 4.16355552 -6.07178379 0 0 0 Z " fill="#900EEC" transform="translate(281,85)"/>
<path d="M0 0 C0.99 0.33 1.98 0.66 3 1 C2.01 1.33 1.02 1.66 0 2 C0 2.66 0 3.32 0 4 C-1.66215268 5.33895632 -3.32963607 6.67130142 -5 8 C-6.34294481 9.65893182 -7.67744688 11.32476605 -9 13 C-9.99 13.66 -10.98 14.32 -12 15 C-12.99 14.67 -13.98 14.34 -15 14 C-14.34 14 -13.68 14 -13 14 C-12.67 13.01 -12.34 12.02 -12 11 C-11.34 11 -10.68 11 -10 11 C-9.690625 10.38125 -9.38125 9.7625 -9.0625 9.125 C-8.375 7.75 -7.6875 6.375 -7 5 C-6.01 5 -5.02 5 -4 5 C-4 4.34 -4 3.68 -4 3 C-3.01 3 -2.02 3 -1 3 C-0.67 2.01 -0.34 1.02 0 0 Z " fill="#9325E8" transform="translate(281,124)"/>
<path d="M0 0 C1.32 0.33 2.64 0.66 4 1 C3.67 4.63 3.34 8.26 3 12 C1.35 12.33 -0.3 12.66 -2 13 C-2.33 12.34 -2.66 11.68 -3 11 C-2.01 11 -1.02 11 0 11 C0 7.37 0 3.74 0 0 Z " fill="#872EC5" transform="translate(307,309)"/>
<path d="M0 0 C0.66 0 1.32 0 2 0 C2 0.66 2 1.32 2 2 C3.32 2.33 4.64 2.66 6 3 C6 3.99 6 4.98 6 6 C4.68 6 3.36 6 2 6 C2 7.98 2 9.96 2 12 C1.01 12 0.02 12 -1 12 C-0.67 8.04 -0.34 4.08 0 0 Z " fill="#9329CB" transform="translate(318,311)"/>
<path d="M0 0 C1 2 1 2 0.37915039 4.33837891 C0.03875732 5.29147949 -0.30163574 6.24458008 -0.65234375 7.2265625 C-1.01650391 8.2578125 -1.38066406 9.2890625 -1.75585938 10.3515625 C-2.34077148 11.97191406 -2.34077148 11.97191406 -2.9375 13.625 C-3.32357422 14.71296875 -3.70964844 15.8009375 -4.10742188 16.921875 C-5.06491865 19.61705111 -6.02937173 22.30953089 -7 25 C-8.29202804 20.37411598 -7.30327754 17.59980309 -6 13 C-5.34 13 -4.68 13 -4 13 C-3.896875 11.783125 -3.79375 10.56625 -3.6875 9.3125 C-3.23780688 5.58930552 -2.21617222 3.08337005 0 0 Z " fill="#A534DB" transform="translate(308,132)"/>
<path d="M0 0 C6.15234375 -0.09765625 6.15234375 -0.09765625 8 0 C9 1 9 1 9.0625 3.5625 C9.041875 4.366875 9.02125 5.17125 9 6 C8.01 5.67 7.02 5.34 6 5 C5.67 5.66 5.34 6.32 5 7 C4.87625 6.360625 4.7525 5.72125 4.625 5.0625 C4.41875 4.381875 4.2125 3.70125 4 3 C3.34 2.67 2.68 2.34 2 2 C2 2.99 2 3.98 2 5 C1.34 5 0.68 5 0 5 C0 3.35 0 1.7 0 0 Z " fill="#B42FCD" transform="translate(412,309)"/>
<path d="M0 0 C1.32 0 2.64 0 4 0 C4.268125 0.804375 4.53625 1.60875 4.8125 2.4375 C5.204375 3.283125 5.59625 4.12875 6 5 C6.99 5.33 7.98 5.66 9 6 C7.3125 7.1875 7.3125 7.1875 5 8 C1.98790347 6.73912238 0.3891297 5.94502928 -0.875 2.875 C-0.91625 2.25625 -0.9575 1.6375 -1 1 C-0.67 0.67 -0.34 0.34 0 0 Z " fill="#C605F9" transform="translate(338,88)"/>
<path d="M0 0 C1 3 1 3 -0.109375 5.8125 C-0.65078125 6.864375 -1.1921875 7.91625 -1.75 9 C-2.28109375 10.051875 -2.8121875 11.10375 -3.359375 12.1875 C-4.74927168 14.57018003 -5.93766113 16.21098315 -8 18 C-8 16.35 -8 14.7 -8 13 C-7.34 13 -6.68 13 -6 13 C-6 12.34 -6 11.68 -6 11 C-5.34 11 -4.68 11 -4 11 C-3.8453125 9.6696875 -3.8453125 9.6696875 -3.6875 8.3125 C-2.98809298 4.9426298 -1.91257489 2.82728462 0 0 Z " fill="#CA33E5" transform="translate(369,165)"/>
<path d="M0 0 C0.66 0 1.32 0 2 0 C2 0.66 2 1.32 2 2 C3.65 2 5.3 2 7 2 C7.33 3.65 7.66 5.3 8 7 C5.69 7 3.38 7 1 7 C0.67 4.69 0.34 2.38 0 0 Z " fill="#AF6AE6" transform="translate(237,311)"/>
<path d="M0 0 C0.33 0 0.66 0 1 0 C1 3.63 1 7.26 1 11 C1.66 10.67 2.32 10.34 3 10 C4.99960012 9.960008 7.00047242 9.95653201 9 10 C9.33 10.99 9.66 11.98 10 13 C8.52093108 13.02689216 7.04172517 13.04634621 5.5625 13.0625 C4.32693359 13.07990234 4.32693359 13.07990234 3.06640625 13.09765625 C1 13 1 13 0 12 C-0.07244053 9.98035801 -0.08377188 7.95832876 -0.0625 5.9375 C-0.05347656 4.83277344 -0.04445313 3.72804688 -0.03515625 2.58984375 C-0.02355469 1.73519531 -0.01195312 0.88054687 0 0 Z " fill="#B143C7" transform="translate(429,310)"/>
<path d="M0 0 C1.32 0 2.64 0 4 0 C4.33 0.66 4.66 1.32 5 2 C5.99 2.33 6.98 2.66 8 3 C5.04288438 4.64284201 2.37991574 5.6442194 -1 6 C-1.66 5.34 -2.32 4.68 -3 4 C-1.75 2 -1.75 2 0 0 Z " fill="#BE05FA" transform="translate(327,200)"/>
<path d="M0 0 C0.99 0 1.98 0 3 0 C3 3.63 3 7.26 3 11 C1.68 10.67 0.36 10.34 -1 10 C-1.02689216 8.52093108 -1.04634621 7.04172517 -1.0625 5.5625 C-1.07410156 4.73878906 -1.08570313 3.91507812 -1.09765625 3.06640625 C-1 1 -1 1 0 0 Z " fill="#C352DD" transform="translate(369,309)"/>
<path d="M0 0 C1.32 0.33 2.64 0.66 4 1 C4 3.97 4 6.94 4 10 C3.34 10 2.68 10 2 10 C-0.09350689 6.5980513 -0.17942163 3.94727588 0 0 Z " fill="#C849E7" transform="translate(360,309)"/>
<path d="M0 0 C0.66 0.66 1.32 1.32 2 2 C0.06860205 3.93139795 -3.39609481 3.64084066 -6 4 C-6.99 4.33 -7.98 4.66 -9 5 C-9 3.68 -9 2.36 -9 1 C-5.98675805 -0.50662097 -3.31713623 -0.17770373 0 0 Z " fill="#8329C2" transform="translate(289,309)"/>
<path d="M0 0 C0.495 0.185625 0.99 0.37125 1.5 0.5625 C5.15081689 1.20139296 8.33964724 0.54905291 12 0 C9.68994131 2.31005869 8.16916343 2.72174103 5.0625 3.625 C3.74958984 4.01558594 3.74958984 4.01558594 2.41015625 4.4140625 C0 5 0 5 -3 5 C-2.67 4.01 -2.34 3.02 -2 2 C-1.34 2 -0.68 2 0 2 C0 1.34 0 0.68 0 0 Z " fill="#AD25E1" transform="translate(323,204)"/>
<path d="M0 0 C0 3.57575896 -1.08840607 5.05295935 -3 8 C-5.31 7.67 -7.62 7.34 -10 7 C-10.33 5.02 -10.66 3.04 -11 1 C-10.34 1 -9.68 1 -9 1 C-9 2.65 -9 4.3 -9 6 C-5.06326356 4.68775452 -2.77280706 3.08089673 0 0 Z " fill="#B635E1" transform="translate(339,157)"/>
<path d="M0 0 C6.4 -0.36923077 6.4 -0.36923077 9.4375 1.5 C9.953125 1.995 10.46875 2.49 11 3 C10.67 3.66 10.34 4.32 10 5 C6.37 4.01 2.74 3.02 -1 2 C-0.67 1.34 -0.34 0.68 0 0 Z " fill="#6C20BA" transform="translate(218,309)"/>
<path d="M0 0 C1.17266191 3.51798573 0.73410958 4.60797979 -0.375 8.0625 C-0.65085937 8.94035156 -0.92671875 9.81820312 -1.2109375 10.72265625 C-2 13 -2 13 -3 15 C-5.04698414 12.95301586 -4.70045693 8.69588759 -5 6 C-4.34 5.67 -3.68 5.34 -3 5 C-2.67 4.01 -2.34 3.02 -2 2 C-1.34 2 -0.68 2 0 2 C0 1.34 0 0.68 0 0 Z " fill="#9C25E1" transform="translate(299,157)"/>
<path d="M0 0 C-4.4516129 3.09139785 -4.4516129 3.09139785 -7.25 2.625 C-7.8275 2.41875 -8.405 2.2125 -9 2 C-9.33 2.33 -9.66 2.66 -10 3 C-12.33297433 3.04092937 -14.66705225 3.04241723 -17 3 C-14.52776237 0.52776237 -13.03193317 0.41990229 -9.625 -0.1875 C-8.66851562 -0.36667969 -7.71203125 -0.54585938 -6.7265625 -0.73046875 C-4.12689671 -0.98745577 -2.45299695 -0.81960325 0 0 Z " fill="#9A14E8" transform="translate(298,82)"/>
<path d="M0 0 C1.32 0.66 2.64 1.32 4 2 C3.79375 2.7425 3.5875 3.485 3.375 4.25 C2.95591249 7.32330841 3.38050989 8.42786866 5 11 C-0.88752009 6.7070166 -0.88752009 6.7070166 -1.4375 3.25 C-1 1 -1 1 0 0 Z " fill="#910FEA" transform="translate(277,143)"/>
<path d="M0 0 C1.875 0.5625 1.875 0.5625 4 2 C5.25 5.625 5.25 5.625 6 9 C4.35 9.33 2.7 9.66 1 10 C1.020625 9.0925 1.04125 8.185 1.0625 7.25 C1.0110245 4.57327412 0.7784983 2.53011948 0 0 Z " fill="#D803FB" transform="translate(360,109)"/>
<path d="M0 0 C0.66 1.32 1.32 2.64 2 4 C0.54077307 3.88590407 -0.91740598 3.75834456 -2.375 3.625 C-3.59316406 3.52058594 -3.59316406 3.52058594 -4.8359375 3.4140625 C-7 3 -7 3 -9 1 C-6.04335481 -0.4783226 -3.25770263 -0.06032783 0 0 Z " fill="#5B27B4" transform="translate(188,309)"/>
<path d="M0 0 C2.48945152 4.80108508 4.52855071 9.79333327 6 15 C5.67 15.99 5.34 16.98 5 18 C4.15321949 16.13103445 3.32313789 14.25449819 2.5 12.375 C2.0359375 11.33085937 1.571875 10.28671875 1.09375 9.2109375 C-0.02767398 5.91875709 -0.207138 3.44884777 0 0 Z " fill="#862FDB" transform="translate(244,157)"/>
<path d="M0 0 C1.65 0 3.3 0 5 0 C-1.15034169 7.48291572 -1.15034169 7.48291572 -5 10 C-5.66 9.67 -6.32 9.34 -7 9 C-5.71034824 7.62437146 -4.37310707 6.29233607 -3 5 C-2.34 5 -1.68 5 -1 5 C-1 4.34 -1 3.68 -1 3 C-0.34 3 0.32 3 1 3 C0.67 2.01 0.34 1.02 0 0 Z " fill="#BB30DE" transform="translate(352,188)"/>
<path d="M0 0 C0.66 0 1.32 0 2 0 C2 0.66 2 1.32 2 2 C2.99 2.33 3.98 2.66 5 3 C5 3.66 5 4.32 5 5 C5.66 5 6.32 5 7 5 C8.0625 6.8125 8.0625 6.8125 9 9 C8.67 9.99 8.34 10.98 8 12 C6.66382103 10.18959679 5.33112616 8.3766216 4 6.5625 C3.2575 5.55316406 2.515 4.54382813 1.75 3.50390625 C0 1 0 1 0 0 Z " fill="#8020D8" transform="translate(250,176)"/>
<path d="M0 0 C2.91345905 1.4467291 5.81395308 2.91285775 8.6875 4.4375 C9.47511719 4.84871094 10.26273437 5.25992188 11.07421875 5.68359375 C13 7 13 7 14 10 C8.97619887 8.43006215 4.9530017 5.39884258 1 2 C0.67 1.34 0.34 0.68 0 0 Z " fill="#882BD4" transform="translate(263,192)"/>
<path d="M0 0 C0.66 0.66 1.32 1.32 2 2 C1.34 2.66 0.68 3.32 0 4 C0.99 4.99 1.98 5.98 3 7 C2.01 7.99 1.02 8.98 0 10 C0 9.34 0 8.68 0 8 C-0.66 8 -1.32 8 -2 8 C-2.33 5.69 -2.66 3.38 -3 1 C-2.01 1.33 -1.02 1.66 0 2 C0 1.34 0 0.68 0 0 Z " fill="#8205F5" transform="translate(252,168)"/>
<path d="M0 0 C0.33 0 0.66 0 1 0 C1 3.3 1 6.6 1 10 C0.34 10 -0.32 10 -1 10 C-1.33 12.31 -1.66 14.62 -2 17 C-2.66 17 -3.32 17 -4 17 C-2.76123355 11.30694567 -1.43723997 5.64629987 0 0 Z " fill="#B03FDE" transform="translate(319,117)"/>
<path d="M0 0 C1.65 0 3.3 0 5 0 C5.66 1.98 6.32 3.96 7 6 C6.01 6.99 5.02 7.98 4 9 C3.896875 8.2575 3.79375 7.515 3.6875 6.75 C2.95746496 3.82985982 1.93210602 2.26812446 0 0 Z " fill="#9517E3" transform="translate(282,154)"/>
<path d="M0 0 C0.6875 1.8125 0.6875 1.8125 1 4 C-0.64504011 6.46756016 -1.80299352 6.94960299 -4.6875 7.6875 C-5.8321875 7.8421875 -5.8321875 7.8421875 -7 8 C-6.02133662 6.85373678 -5.04205413 5.70800212 -4.0625 4.5625 C-3.51722656 3.92441406 -2.97195313 3.28632813 -2.41015625 2.62890625 C-1.63204305 1.73008851 -0.84063472 0.84063472 0 0 Z " fill="#BC31ED" transform="translate(347,149)"/>
<path d="M0 0 C0.66 0.33 1.32 0.66 2 1 C1.7525 1.53625 1.505 2.0725 1.25 2.625 C0.86446856 6.28754864 2.86818034 8.15757379 5 11 C2.13998967 9.71792641 -0.07039412 8.50848764 -2 6 C-2 4.68 -2 3.36 -2 2 C-1.34 2 -0.68 2 0 2 C0 1.34 0 0.68 0 0 Z " fill="#AF27E2" transform="translate(329,124)"/>
<path d="M0 0 C0.66 0 1.32 0 2 0 C2 2.64 2 5.28 2 8 C1.34 8 0.68 8 0 8 C-0.33 8.99 -0.66 9.98 -1 11 C-1.14285714 3.57142857 -1.14285714 3.57142857 0 0 Z " fill="#9B58E1" transform="translate(218,311)"/>
<path d="M0 0 C1.9375 0.8125 1.9375 0.8125 4 2 C4.33 2.99 4.66 3.98 5 5 C4.34 5.66 3.68 6.32 3 7 C2.01 7 1.02 7 0 7 C0 4.69 0 2.38 0 0 Z " fill="#C158E3" transform="translate(347,311)"/>
<path d="M0 0 C1 2 2 4 3 6 C1.35 7.98 -0.3 9.96 -2 12 C-2.66 11.67 -3.32 11.34 -4 11 C-3.67 10.01 -3.34 9.02 -3 8 C-2.34 8 -1.68 8 -1 8 C-0.67 5.36 -0.34 2.72 0 0 Z " fill="#A604F6" transform="translate(309,153)"/>
<path d="M0 0 C-3.465 2.97 -3.465 2.97 -7 6 C-7 5.01 -7 4.02 -7 3 C-7.66 3 -8.32 3 -9 3 C-9 2.34 -9 1.68 -9 1 C-2.25 -1.125 -2.25 -1.125 0 0 Z " fill="#B21CE3" transform="translate(338,151)"/>
<path d="M0 0 C0.66 0 1.32 0 2 0 C2 1.65 2 3.3 2 5 C1.01 5 0.02 5 -1 5 C-1 5.99 -1 6.98 -1 8 C-2.65 8.33 -4.3 8.66 -6 9 C-5.566875 8.43410156 -5.13375 7.86820313 -4.6875 7.28515625 C-4.130625 6.55167969 -3.57375 5.81820312 -3 5.0625 C-2.443125 4.33160156 -1.88625 3.60070312 -1.3125 2.84765625 C0.09651945 1.24185632 0.09651945 1.24185632 0 0 Z " fill="#AE52EE" transform="translate(286,127)"/>
<path d="M0 0 C0 3 0 3 -1.4375 4.5 C-1.953125 4.995 -2.46875 5.49 -3 6 C-3.33 6.99 -3.66 7.98 -4 9 C-6.5625 10.1875 -6.5625 10.1875 -9 11 C-6.36113346 6.7973607 -3.63559661 3.43361902 0 0 Z " fill="#7E23D1" transform="translate(263,96)"/>
<path d="M0 0 C0.99 0 1.98 0 3 0 C2.67 0.99 2.34 1.98 2 3 C1.01 3 0.02 3 -1 3 C-1.33 3.66 -1.66 4.32 -2 5 C-1.125 1.125 -1.125 1.125 0 0 Z M-4 5 C-3.34 5.33 -2.68 5.66 -2 6 C-3.65 7.32 -5.3 8.64 -7 10 C-7 9.01 -7 8.02 -7 7 C-6.01 6.34 -5.02 5.68 -4 5 Z " fill="#8905F7" transform="translate(261,100)"/>
<path d="M0 0 C-0.33 1.32 -0.66 2.64 -1 4 C-3.31 4 -5.62 4 -8 4 C-6.27302455 0.54604909 -3.70696841 0 0 0 Z " fill="#7D3BD5" transform="translate(210,318)"/>
<path d="M0 0 C0.33 0.66 0.66 1.32 1 2 C3.02463255 2.65213292 3.02463255 2.65213292 5 3 C5 3.99 5 4.98 5 6 C3.35 6 1.7 6 0 6 C0 4.02 0 2.04 0 0 Z " fill="#A92BE5" transform="translate(319,311)"/>
<path d="M0 0 C7.75 0.875 7.75 0.875 10 2 C10 2.66 10 3.32 10 4 C5.78087253 3.5205537 3.20336822 2.83374881 0 0 Z " fill="#9225D8" transform="translate(279,203)"/>
<path d="M0 0 C0.99 0 1.98 0 3 0 C1.60667426 3.36720387 0.0210714 4.9859524 -3 7 C-3.33 5.35 -3.66 3.7 -4 2 C-2.68 2.33 -1.36 2.66 0 3 C0 2.01 0 1.02 0 0 Z " fill="#B125DE" transform="translate(341,143)"/>
<path d="M0 0 C4.455 2.97 4.455 2.97 9 6 C8.67 6.66 8.34 7.32 8 8 C7.34 7.34 6.68 6.68 6 6 C4.01643517 5.28591666 2.01684563 4.61382258 0 4 C0 2.68 0 1.36 0 0 Z " fill="#B70CEE" transform="translate(328,131)"/>
<path d="M0 0 C2.64 0 5.28 0 8 0 C6.68 1.32 5.36 2.64 4 4 C2.68 3.34 1.36 2.68 0 2 C0 1.34 0 0.68 0 0 Z " fill="#CD03FC" transform="translate(343,192)"/>
<path d="M0 0 C4.455 2.97 4.455 2.97 9 6 C6 7 6 7 3.9375 6.375 C2 5 2 5 0 0 Z " fill="#B736D9" transform="translate(342,88)"/>
<path d="M0 0 C0.33 0.99 0.66 1.98 1 3 C-2.3 3 -5.6 3 -9 3 C-4.5 -0.375 -4.5 -0.375 0 0 Z " fill="#6227A7" transform="translate(245,320)"/>
<path d="M0 0 C0.66 0.33 1.32 0.66 2 1 C1.34 2.32 0.68 3.64 0 5 C-2.31 5 -4.62 5 -7 5 C-4.702779 3.25728062 -2.40133271 1.60088848 0 0 Z " fill="#5526AC" transform="translate(188,318)"/>
<path d="M0 0 C3.465 1.485 3.465 1.485 7 3 C7 3.66 7 4.32 7 5 C5.02 5 3.04 5 1 5 C0.67 3.35 0.34 1.7 0 0 Z " fill="#9426DA" transform="translate(279,160)"/>
<path d="M0 0 C0 0.66 0 1.32 0 2 C-1.98 2 -3.96 2 -6 2 C-6.33 1.34 -6.66 0.68 -7 0 C-4.3333581 -1.33332095 -2.83319697 -0.67102033 0 0 Z " fill="#6821C4" transform="translate(245,314)"/>
<path d="M0 0 C2.88575819 0.39803561 3.82189513 0.79009069 5.75 3.0625 C6.1625 3.701875 6.575 4.34125 7 5 C5.35 5 3.7 5 2 5 C1.34 3.35 0.68 1.7 0 0 Z " fill="#930AF2" transform="translate(275,198)"/>
<path d="" fill="#8D8DC6" transform="translate(0,0)"/>
<path d="" fill="#FFFFFF" transform="translate(0,0)"/>
</svg>
